<svg xmlns="http://www.w3.org/2000/svg" xmlns:xlink="http://www.w3.org/1999/xlink" version="1.1" x="0px" y="0px" viewBox="0 0 100 125" enable-background="new 0 0 100 100" xml:space="preserve"><path fill="none" stroke="#000000" stroke-linecap="round" stroke-linejoin="round" stroke-miterlimit="10" d="M25.001,35.002  c0-1.016-0.204-1.986-0.572-2.87c-1.55-3.736-2.414-7.834-2.414-12.132l-1.76,13.16c-0.274,2.044-0.722,2.044-0.996,0L17.501,20  l-1.76,13.16c-0.274,2.044-0.722,2.044-0.996,0L12.99,20.024c-0.005,4.289-0.867,8.378-2.417,12.108h-0.001  c-0.367,0.883-0.57,1.854-0.57,2.868c0,3.425,2.296,6.306,5.43,7.206l-2.617,33.105c0,2.591,2.098,4.689,4.687,4.689  s4.688-2.099,4.688-4.689l-2.575-33.115C22.727,41.282,25.001,38.411,25.001,35.002z M12.984,20l0.005,0.024  c0-0.009,0-0.017,0-0.024H12.984z"/><path fill="none" stroke="#000000" stroke-linecap="round" stroke-linejoin="round" stroke-miterlimit="10" d="M87.762,23.526  v-0.002c-0.29-0.696-0.714-1.323-1.235-1.846l-0.004-0.012c-0.523-0.522-1.148-0.944-1.845-1.233C84.008,20.155,83.271,20,82.499,20  l0,0c-0.773,0-1.507,0.155-2.179,0.432c-0.694,0.29-1.323,0.711-1.847,1.233l-0.004,0.012c-0.521,0.523-0.943,1.15-1.231,1.846  l-0.002,0.002C75.799,26.99,74.997,31.014,74.997,35c0,3.425,2.297,6.306,5.43,7.206l-2.614,33.105c0,2.591,2.096,4.689,4.687,4.689  c2.587,0,4.688-2.099,4.688-4.689l-2.575-33.115c3.112-0.913,5.384-3.785,5.384-7.193L89.999,35  C89.999,31.014,89.198,26.99,87.762,23.526z"/><circle fill="none" stroke="#000000" stroke-linecap="round" stroke-linejoin="round" stroke-miterlimit="10" cx="50" cy="50" r="22.502"/><circle fill="none" stroke="#000000" stroke-linecap="round" stroke-linejoin="round" stroke-miterlimit="10" cx="50.001" cy="50" r="18.752"/><path fill="none" stroke="#000000" stroke-linecap="round" stroke-linejoin="round" stroke-miterlimit="10" d="M50,36.249V31.25  V36.249z"/><path fill="none" stroke="#000000" stroke-linecap="round" stroke-linejoin="round" stroke-miterlimit="10" d="M50,58.75V50V58.75z"/><path fill="none" stroke="#000000" stroke-linecap="round" stroke-linejoin="round" stroke-miterlimit="10" d="M50,50l6.251-6.251  L50,50z"/><path fill="none" stroke="#000000" stroke-linecap="round" stroke-linejoin="round" stroke-miterlimit="10" d="M50,50L39.395,39.393  L50,50z"/><path fill="none" stroke="#000000" stroke-linecap="round" stroke-linejoin="round" stroke-miterlimit="10" d="M50,68.75v-4.999  V68.75z"/><path fill="none" stroke="#000000" stroke-linecap="round" stroke-linejoin="round" stroke-miterlimit="10" d="M36.249,50H31.25  H36.249z"/><path fill="none" stroke="#000000" stroke-linecap="round" stroke-linejoin="round" stroke-miterlimit="10" d="M68.75,50h-4.999  H68.75z"/><path fill="none" stroke="#000000" stroke-linecap="round" stroke-linejoin="round" stroke-miterlimit="10" d="M63.259,63.259  l-3.535-3.535L63.259,63.259z"/><path fill="none" stroke="#000000" stroke-linecap="round" stroke-linejoin="round" stroke-miterlimit="10" d="M40.278,59.724  l-3.535,3.535L40.278,59.724z"/><path fill="none" stroke="#000000" stroke-linecap="round" stroke-linejoin="round" stroke-miterlimit="10" d="M63.259,36.742  l-3.535,3.535L63.259,36.742z"/><text x="0" y="115" fill="#000000" font-size="5px" font-weight="bold" font-family="'Helvetica Neue', Helvetica, Arial-Unicode, Arial, Sans-serif">Created by Danil Polshin</text><text x="0" y="120" fill="#000000" font-size="5px" font-weight="bold" font-family="'Helvetica Neue', Helvetica, Arial-Unicode, Arial, Sans-serif">from the Noun Project</text></svg>